<mxfile host="app.diagrams.net" modified="2025-08-03T00:00:00.000Z" agent="5.0" etag="data_flow_v1" version="24.6.4" type="device">
  <diagram name="Data Flow Architecture" id="data-flow">
    <mxGraphModel dx="1422" dy="754" grid="1" gridSize="10" guides="1" tooltips="1" connect="1" arrows="1" fold="1" page="1" pageScale="1" pageWidth="827" pageHeight="1169" math="0" shadow="0">
      <root>
        <mxCell id="0" />
        <mxCell id="1" parent="0" />
        
        <!-- Title -->
        <mxCell id="title" value="Data Flow Architecture" style="text;html=1;strokeColor=none;fillColor=none;align=center;verticalAlign=middle;whiteSpace=wrap;rounded=0;fontSize=18;fontStyle=1" vertex="1" parent="1">
          <mxGeometry x="300" y="20" width="220" height="30" as="geometry" />
        </mxCell>
        
        <!-- Game Layer -->
        <mxCell id="game" value="Game Logic" style="rounded=1;whiteSpace=wrap;html=1;fillColor=#e1d5e7;strokeColor=#9673a6;fontStyle=1;fontSize=14" vertex="1" parent="1">
          <mxGeometry x="350" y="80" width="120" height="50" as="geometry" />
        </mxCell>
        
        <!-- Scene Layer -->
        <mxCell id="scene" value="Scene Management" style="rounded=1;whiteSpace=wrap;html=1;fillColor=#dae8fc;strokeColor=#6c8ebf;fontStyle=1" vertex="1" parent="1">
          <mxGeometry x="350" y="170" width="120" height="50" as="geometry" />
        </mxCell>
        
        <!-- Scene Components -->
        <mxCell id="camera" value="Camera&#xa;System" style="rounded=0;whiteSpace=wrap;html=1;fillColor=#d5e8d4;strokeColor=#82b366" vertex="1" parent="1">
          <mxGeometry x="150" y="250" width="80" height="50" as="geometry" />
        </mxCell>
        
        <mxCell id="transform" value="Transform&#xa;System" style="rounded=0;whiteSpace=wrap;html=1;fillColor=#d5e8d4;strokeColor=#82b366" vertex="1" parent="1">
          <mxGeometry x="250" y="250" width="80" height="50" as="geometry" />
        </mxCell>
        
        <mxCell id="lighting" value="Lighting&#xa;System" style="rounded=0;whiteSpace=wrap;html=1;fillColor=#d5e8d4;strokeColor=#82b366" vertex="1" parent="1">
          <mxGeometry x="450" y="250" width="80" height="50" as="geometry" />
        </mxCell>
        
        <mxCell id="objects" value="Object&#xa;Manager" style="rounded=0;whiteSpace=wrap;html=1;fillColor=#d5e8d4;strokeColor=#82b366" vertex="1" parent="1">
          <mxGeometry x="550" y="250" width="80" height="50" as="geometry" />
        </mxCell>
        
        <!-- Renderer Layer -->
        <mxCell id="renderer" value="High-Level Renderer" style="rounded=1;whiteSpace=wrap;html=1;fillColor=#fff2cc;strokeColor=#d6b656;fontStyle=1" vertex="1" parent="1">
          <mxGeometry x="350" y="340" width="120" height="50" as="geometry" />
        </mxCell>
        
        <!-- Render Queue -->
        <mxCell id="queue" value="Render Queue" style="rounded=0;whiteSpace=wrap;html=1;fillColor=#ffe6cc;strokeColor=#d79b00" vertex="1" parent="1">
          <mxGeometry x="200" y="420" width="80" height="40" as="geometry" />
        </mxCell>
        
        <mxCell id="commands" value="Command&#xa;Recording" style="rounded=0;whiteSpace=wrap;html=1;fillColor=#ffe6cc;strokeColor=#d79b00" vertex="1" parent="1">
          <mxGeometry x="300" y="420" width="80" height="40" as="geometry" />
        </mxCell>
        
        <mxCell id="passes" value="Render&#xa;Passes" style="rounded=0;whiteSpace=wrap;html=1;fillColor=#ffe6cc;strokeColor=#d79b00" vertex="1" parent="1">
          <mxGeometry x="400" y="420" width="80" height="40" as="geometry" />
        </mxCell>
        
        <mxCell id="batching" value="Draw Call&#xa;Batching" style="rounded=0;whiteSpace=wrap;html=1;fillColor=#ffe6cc;strokeColor=#d79b00" vertex="1" parent="1">
          <mxGeometry x="500" y="420" width="80" height="40" as="geometry" />
        </mxCell>
        
        <!-- Vulkan Layer -->
        <mxCell id="vulkan" value="Vulkan Context" style="rounded=1;whiteSpace=wrap;html=1;fillColor=#f8cecc;strokeColor=#b85450;fontStyle=1" vertex="1" parent="1">
          <mxGeometry x="350" y="500" width="120" height="50" as="geometry" />
        </mxCell>
        
        <!-- Resource Managers -->
        <mxCell id="buffers" value="Buffer&#xa;Manager" style="rounded=0;whiteSpace=wrap;html=1;fillColor=#e6f3ff;strokeColor=#4d9fff" vertex="1" parent="1">
          <mxGeometry x="150" y="580" width="70" height="40" as="geometry" />
        </mxCell>
        
        <mxCell id="images" value="Image&#xa;Manager" style="rounded=0;whiteSpace=wrap;html=1;fillColor=#e6f3ff;strokeColor=#4d9fff" vertex="1" parent="1">
          <mxGeometry x="240" y="580" width="70" height="40" as="geometry" />
        </mxCell>
        
        <mxCell id="pipelines" value="Pipeline&#xa;Manager" style="rounded=0;whiteSpace=wrap;html=1;fillColor=#e6f3ff;strokeColor=#4d9fff" vertex="1" parent="1">
          <mxGeometry x="450" y="580" width="70" height="40" as="geometry" />
        </mxCell>
        
        <mxCell id="shaders" value="Shader&#xa;Manager" style="rounded=0;whiteSpace=wrap;html=1;fillColor=#e6f3ff;strokeColor=#4d9fff" vertex="1" parent="1">
          <mxGeometry x="540" y="580" width="70" height="40" as="geometry" />
        </mxCell>
        
        <!-- GPU -->
        <mxCell id="gpu" value="GPU Hardware" style="rounded=1;whiteSpace=wrap;html=1;fillColor=#f0f0f0;strokeColor=#666666;fontStyle=1;fontSize=14" vertex="1" parent="1">
          <mxGeometry x="350" y="660" width="120" height="50" as="geometry" />
        </mxCell>
        
        <!-- Data Flow Arrows -->
        <mxCell id="flow1" style="edgeStyle=orthogonalEdgeStyle;rounded=0;orthogonalLoop=1;jettySize=auto;html=1;strokeWidth=2;fillColor=#e1d5e7;strokeColor=#9673a6" edge="1" parent="1" source="game" target="scene">
          <mxGeometry relative="1" as="geometry">
            <mxPoint x="410" y="130" as="sourcePoint" />
            <mxPoint x="410" y="170" as="targetPoint" />
          </mxGeometry>
        </mxCell>
        
        <mxCell id="flow2" style="edgeStyle=orthogonalEdgeStyle;rounded=0;orthogonalLoop=1;jettySize=auto;html=1;strokeWidth=2;fillColor=#dae8fc;strokeColor=#6c8ebf" edge="1" parent="1" source="scene" target="renderer">
          <mxGeometry relative="1" as="geometry" />
        </mxCell>
        
        <mxCell id="flow3" style="edgeStyle=orthogonalEdgeStyle;rounded=0;orthogonalLoop=1;jettySize=auto;html=1;strokeWidth=2;fillColor=#fff2cc;strokeColor=#d6b656" edge="1" parent="1" source="renderer" target="vulkan">
          <mxGeometry relative="1" as="geometry" />
        </mxCell>
        
        <mxCell id="flow4" style="edgeStyle=orthogonalEdgeStyle;rounded=0;orthogonalLoop=1;jettySize=auto;html=1;strokeWidth=2;fillColor=#f8cecc;strokeColor=#b85450" edge="1" parent="1" source="vulkan" target="gpu">
          <mxGeometry relative="1" as="geometry" />
        </mxCell>
        
        <!-- Component connections -->
        <mxCell id="comp1" style="edgeStyle=orthogonalEdgeStyle;rounded=0;orthogonalLoop=1;jettySize=auto;html=1;strokeWidth=1;fillColor=#d5e8d4;strokeColor=#82b366" edge="1" parent="1" source="scene" target="camera">
          <mxGeometry relative="1" as="geometry" />
        </mxCell>
        
        <mxCell id="comp2" style="edgeStyle=orthogonalEdgeStyle;rounded=0;orthogonalLoop=1;jettySize=auto;html=1;strokeWidth=1;fillColor=#d5e8d4;strokeColor=#82b366" edge="1" parent="1" source="scene" target="transform">
          <mxGeometry relative="1" as="geometry" />
        </mxCell>
        
        <mxCell id="comp3" style="edgeStyle=orthogonalEdgeStyle;rounded=0;orthogonalLoop=1;jettySize=auto;html=1;strokeWidth=1;fillColor=#d5e8d4;strokeColor=#82b366" edge="1" parent="1" source="scene" target="lighting">
          <mxGeometry relative="1" as="geometry" />
        </mxCell>
        
        <mxCell id="comp4" style="edgeStyle=orthogonalEdgeStyle;rounded=0;orthogonalLoop=1;jettySize=auto;html=1;strokeWidth=1;fillColor=#d5e8d4;strokeColor=#82b366" edge="1" parent="1" source="scene" target="objects">
          <mxGeometry relative="1" as="geometry" />
        </mxCell>
        
        <!-- Render pipeline connections -->
        <mxCell id="pipe1" style="edgeStyle=orthogonalEdgeStyle;rounded=0;orthogonalLoop=1;jettySize=auto;html=1;strokeWidth=1;fillColor=#ffe6cc;strokeColor=#d79b00" edge="1" parent="1" source="renderer" target="queue">
          <mxGeometry relative="1" as="geometry" />
        </mxCell>
        
        <mxCell id="pipe2" style="edgeStyle=orthogonalEdgeStyle;rounded=0;orthogonalLoop=1;jettySize=auto;html=1;strokeWidth=1;fillColor=#ffe6cc;strokeColor=#d79b00" edge="1" parent="1" source="renderer" target="commands">
          <mxGeometry relative="1" as="geometry" />
        </mxCell>
        
        <mxCell id="pipe3" style="edgeStyle=orthogonalEdgeStyle;rounded=0;orthogonalLoop=1;jettySize=auto;html=1;strokeWidth=1;fillColor=#ffe6cc;strokeColor=#d79b00" edge="1" parent="1" source="renderer" target="passes">
          <mxGeometry relative="1" as="geometry" />
        </mxCell>
        
        <mxCell id="pipe4" style="edgeStyle=orthogonalEdgeStyle;rounded=0;orthogonalLoop=1;jettySize=auto;html=1;strokeWidth=1;fillColor=#ffe6cc;strokeColor=#d79b00" edge="1" parent="1" source="renderer" target="batching">
          <mxGeometry relative="1" as="geometry" />
        </mxCell>
        
        <!-- Resource manager connections -->
        <mxCell id="res1" style="edgeStyle=orthogonalEdgeStyle;rounded=0;orthogonalLoop=1;jettySize=auto;html=1;strokeWidth=1;fillColor=#e6f3ff;strokeColor=#4d9fff" edge="1" parent="1" source="vulkan" target="buffers">
          <mxGeometry relative="1" as="geometry" />
        </mxCell>
        
        <mxCell id="res2" style="edgeStyle=orthogonalEdgeStyle;rounded=0;orthogonalLoop=1;jettySize=auto;html=1;strokeWidth=1;fillColor=#e6f3ff;strokeColor=#4d9fff" edge="1" parent="1" source="vulkan" target="images">
          <mxGeometry relative="1" as="geometry" />
        </mxCell>
        
        <mxCell id="res3" style="edgeStyle=orthogonalEdgeStyle;rounded=0;orthogonalLoop=1;jettySize=auto;html=1;strokeWidth=1;fillColor=#e6f3ff;strokeColor=#4d9fff" edge="1" parent="1" source="vulkan" target="pipelines">
          <mxGeometry relative="1" as="geometry" />
        </mxCell>
        
        <mxCell id="res4" style="edgeStyle=orthogonalEdgeStyle;rounded=0;orthogonalLoop=1;jettySize=auto;html=1;strokeWidth=1;fillColor=#e6f3ff;strokeColor=#4d9fff" edge="1" parent="1" source="vulkan" target="shaders">
          <mxGeometry relative="1" as="geometry" />
        </mxCell>
        
        <!-- Data flow labels -->
        <mxCell id="label1" value="Scene Updates" style="text;html=1;strokeColor=none;fillColor=none;align=center;verticalAlign=middle;whiteSpace=wrap;rounded=0;fontSize=10;fontStyle=2" vertex="1" parent="1">
          <mxGeometry x="480" y="125" width="80" height="20" as="geometry" />
        </mxCell>
        
        <mxCell id="label2" value="Render Commands" style="text;html=1;strokeColor=none;fillColor=none;align=center;verticalAlign=middle;whiteSpace=wrap;rounded=0;fontSize=10;fontStyle=2" vertex="1" parent="1">
          <mxGeometry x="480" y="255" width="90" height="20" as="geometry" />
        </mxCell>
        
        <mxCell id="label3" value="Vulkan API Calls" style="text;html=1;strokeColor=none;fillColor=none;align=center;verticalAlign=middle;whiteSpace=wrap;rounded=0;fontSize=10;fontStyle=2" vertex="1" parent="1">
          <mxGeometry x="480" y="415" width="90" height="20" as="geometry" />
        </mxCell>
        
        <mxCell id="label4" value="GPU Commands" style="text;html=1;strokeColor=none;fillColor=none;align=center;verticalAlign=middle;whiteSpace=wrap;rounded=0;fontSize=10;fontStyle=2" vertex="1" parent="1">
          <mxGeometry x="480" y="575" width="80" height="20" as="geometry" />
        </mxCell>
        
        <!-- Key Principles -->
        <mxCell id="principles" value="Data Flow Principles:&#xa;• Unidirectional Flow&#xa;• Layer Abstraction&#xa;• Error Propagation&#xa;• Resource Isolation&#xa;• Async/Batching" style="text;html=1;strokeColor=#d6b656;fillColor=#fff2cc;align=left;verticalAlign=top;whiteSpace=wrap;rounded=1;fontSize=10" vertex="1" parent="1">
          <mxGeometry x="650" y="300" width="140" height="120" as="geometry" />
        </mxCell>
      </root>
    </mxGraphModel>
  </diagram>
</mxfile>
